Coordinates
nRows=11
nColumns=24

# SIMM Motion File Header:
name Coordinates
datacolumns 24
datarows 11
otherdata 1
range 0.17166999999999999000 0.18167000000000000000
endheader
time	pelvis_tx	pelvis_ty	pelvis_tz	pelvis_tilt	pelvis_list	pelvis_rotation	hip_flexion_r	hip_adduction_r	hip_rotation_r	knee_angle_r	ankle_angle_r	subtalar_angle_r	mtp_angle_r	hip_flexion_l	hip_adduction_l	hip_rotation_l	knee_angle_l	ankle_angle_l	subtalar_angle_l	mtp_angle_l	lumbar_extension	lumbar_bending	lumbar_rotation
      0.17166999999999999000	      0.66866792694459110000	      0.67976006749664375000	     -0.26336773714878792000	      0.17429885347064311000	     -4.20761643941399390000	      3.30567108428681290000	     11.77763891071589300000	      6.39384587831326190000	      0.04160033382932526400	    -16.44128534244839600000	      4.21433125501586850000	     -0.00000000000000215359	     -0.00000000000001903888	      5.25636196404982940000	     -5.88687071908969270000	    -10.54550207167088500000	    -57.89289261257627600000	    -10.05815782583582800000	      0.00000000000000021819	     -0.00000000000000086217	    -19.88002803584477000000	      6.14903573303998920000	     -3.04741411501251140000
      0.17266999999999999000	      0.67007043451013237000	      0.68009704803294224000	     -0.26330083575616930000	      0.13986295009724425000	     -4.15341409889433690000	      3.25052493435829780000	     11.57474185554549700000	      6.34330352284610480000	      0.07604326425693969100	    -16.23907727318282600000	      4.23120408476212260000	     -0.00000000000000206102	     -0.00000000000001953566	      5.51800305543819200000	     -5.86067586527382020000	    -10.56036307510135200000	    -57.88181066578507500000	     -9.89253497767336750000	      0.00000000000000023566	     -0.00000000000000091895	    -19.83992215223590000000	      6.02839656069205620000	     -2.92723210200481350000
      0.17366999999999999000	      0.67147462499972677000	      0.68043603461810542000	     -0.26323225922117782000	      0.10972851789493575000	     -4.09923225015970430000	      3.19449095738117480000	     11.36631721847438400000	      6.29330140429053930000	      0.10914870919877508000	    -16.03447118998198600000	      4.24824577064403730000	     -0.00000000000000196803	     -0.00000000000002006686	      5.77233520711480000000	     -5.83565695453767840000	    -10.57664447362596000000	    -57.85987257259043300000	     -9.75802916547393370000	      0.00000000000000025785	     -0.00000000000000096941	    -19.80446591183847000000	      5.90742535670878870000	     -2.80653364000480150000
      0.17466999999999999000	      0.67288042716166030000	      0.68077693144230733000	     -0.26316208065492236000	      0.08371089364184983200	     -4.04507075389741290000	      3.13760953346209170000	     11.15260130908948200000	      6.24381640464975260000	      0.14096786084131044000	    -15.82756603146523500000	      4.26546198175104060000	     -0.00000000000000187464	     -0.00000000000002063141	      6.01967009475706490000	     -5.81176477455248190000	    -10.59428126911909900000	    -57.82753267779673900000	     -9.65331398557935750000	      0.00000000000000028448	     -0.00000000000000101333	    -19.77345860480583500000	      5.78613763062615230000	     -2.68534538397720950000
      0.17566999999999999000	      0.67428624785213886000	      0.68111779530363725000	     -0.26309189001241046000	      0.05773090120650096300	     -3.99091397005171490000	      3.08072711417470120000	     10.93883447966455900000	      6.19433900651562210000	      0.17275313470801013000	    -15.62062402394303400000	      4.28270131546060020000	     -0.00000000000000178128	     -0.00000000000002119625	      6.26692730874298840000	     -5.78788949289525780000	    -10.61191646064296300000	    -57.79503898216908900000	     -9.54881794555238980000	      0.00000000000000031152	     -0.00000000000000105815	    -19.74248743588507100000	      5.66485313874996430000	     -2.56417019415338030000
      0.17666999999999999000	      0.67569423241042981000	      0.68145480957519344000	     -0.26302028903667823000	      0.03614576431937942300	     -3.93730752874735050000	      3.02372845017235870000	     10.71912092127843200000	      6.14574935512642730000	      0.20058197117555188000	    -15.40937858209893300000	      4.30264103688043060000	     -0.00000000000000169134	     -0.00000000000002179436	      6.50511335582679440000	     -5.76598769311885920000	    -10.62936433160437100000	    -57.74458355922971700000	     -9.46991429305587040000	      0.00000000000000038801	     -0.00000000000000120859	    -19.71573667913146700000	      5.54394635571188670000	     -2.44452094916970000000
      0.17766999999999999000	      0.67710221696872064000	      0.68179182384674974000	     -0.26294868806094601000	      0.01456062743225787300	     -3.88370108744298650000	      2.96672978617001610000	     10.49940736289230400000	      6.09715970373723340000	      0.22841080764309363000	    -15.19813314025483200000	      4.32258075830026110000	     -0.00000000000000160139	     -0.00000000000002239246	      6.74329940291059950000	     -5.74408589334246140000	    -10.64681220256577800000	    -57.69412813629035200000	     -9.39101064055935280000	      0.00000000000000046450	     -0.00000000000000135902	    -19.68898592237786400000	      5.42303957267380810000	     -2.32487170418601920000
      0.17867000000000000000	      0.67851030896796904000	      0.68212274191544997000	     -0.26287751039434026000	     -0.00759715574712174420	     -3.83045479174096170000	      2.91038012498627550000	     10.28021297663737800000	      6.04873143114782060000	      0.25450471127625607000	    -14.98549017306880600000	      4.34241947800794930000	     -0.00000000000000151262	     -0.00000000000002303610	      6.98081380105515240000	     -5.72254343526245450000	    -10.66270558047421500000	    -57.63859970757390300000	     -9.29821901366340240000	      0.00000000000000055857	     -0.00000000000000153936	    -19.66117521733434300000	      5.30267881892017810000	     -2.20709759439607380000
      0.17967000000000000000	      0.67991850482040050000	      0.68244776735171730000	     -0.26280674190130482000	     -0.03030846284852099400	     -3.77755661530383020000	      2.85465779447840130000	     10.06152042580537800000	      6.00045914843801230000	      0.27892161666476134000	    -14.77149634808654400000	      4.36216056875236370000	     -0.00000000000000142499	     -0.00000000000002372376	      7.21767897862480370000	     -5.70134831938621380000	    -10.67709637449611100000	    -57.57816767589673600000	     -9.19200317331770120000	      0.00000000000000066964	     -0.00000000000000174861	    -19.63233995884045100000	      5.18284586090215620000	     -2.09113600343456740000
      0.18067000000000000000	      0.68132669268983170000	      0.68277267060664415000	     -0.26273598990340918000	     -0.05304858680615950200	     -3.72465947622240680000	      2.79894939159040490000	      9.84286152950720530000	      5.95218197757357180000	      0.30332240470272553000	    -14.55748685584666900000	      4.38186027526908010000	     -0.00000000000000133710	     -0.00000000000002441291	      7.45456381190433780000	     -5.68014725217405210000	    -10.69145202896635300000	    -57.51769028899044400000	     -9.08541160916189840000	      0.00000000000000078119	     -0.00000000000000195846	    -19.60346683695571800000	      5.06301882226019910000	     -1.97521159675468110000
      0.18167000000000000000	      0.68273394825954759000	      0.68308330483673152000	     -0.26266716430081311000	     -0.07915410547873143200	     -3.67188348538103380000	      2.74486753456636960000	      9.62813299914916950000	      5.90333394049020030000	      0.32584091780135988000	    -14.34164765305389900000	      4.39672689867566110000	     -0.00000000000000121947	     -0.00000000000002527529	      7.69374414964878020000	     -5.65825115444609050000	    -10.70170388875324700000	    -57.45191606307035700000	     -8.93494090307987320000	      0.00000000000000094793	     -0.00000000000000223938	    -19.57017181511221400000	      4.94388308168208290000	     -1.86362977983563670000
